# xmcd CD database file
#
# Track frame offsets:
#	150
#	13990
#	25750
#	47652
#	63387
#	75790
#	100775
#	131280
#	144682
#	159385
#	175025
#	193952
#
# Disc length: 2870 seconds
#
# Revision: 0
# Processed by: cddbd v1.5PL3 Copyright (c) Steve Scherf et al.
# Submitted via: CDex 1.51
#
DISCID=930b340c
DTITLE=Elisa Fiorillo - Teach Me Tonight
DYEAR=2002
DGENRE=Jazz
TTITLE0=All Of Me
TTITLE1=Teach Me Tonight
TTITLE2=Blue Moon
TTITLE3=Moon River
TTITLE4=The Days Of Wine And Roses
TTITLE5=Black Coffee
TTITLE6=My Funny Valentine
TTITLE7=When You Wish Upon A Star
TTITLE8=Fly Me To The Moon
TTITLE9=I Can7t Give You Anything But Love
TTITLE10=Cheek to Cheek
TTITLE11=My Foolish Heart
EXTD=YEAR: 2002
EXTT0=
EXTT1=
EXTT2=
EXTT3=
EXTT4=
EXTT5=
EXTT6=
EXTT7=
EXTT8=
EXTT9=
EXTT10=
EXTT11=
PLAYORDER=
